<svg width="17" height="20" viewBox="0 0 17 20" fill="none" xmlns="http://www.w3.org/2000/svg">
<path d="M16.1906 15.3235C15.9024 15.9894 15.5612 16.6024 15.1659 17.1659C14.6271 17.9341 14.1859 18.4659 13.8459 18.7612C13.3188 19.2459 12.7541 19.4941 12.1494 19.5082C11.7153 19.5082 11.1918 19.3847 10.5824 19.1341C9.97096 18.8847 9.40908 18.7612 8.89531 18.7612C8.35649 18.7612 7.77861 18.8847 7.16049 19.1341C6.54143 19.3847 6.04273 19.5153 5.66143 19.5282C5.08155 19.5529 4.50355 19.2976 3.92661 18.7612C3.55837 18.44 3.09778 17.8894 2.54602 17.1094C1.95402 16.2765 1.46731 15.3106 1.08602 14.2094C0.677667 13.02 0.472961 11.8682 0.472961 10.7532C0.472961 9.47588 0.748961 8.37424 1.30178 7.45106C1.73626 6.70953 2.31426 6.12459 3.03767 5.69518C3.76108 5.26576 4.54273 5.04694 5.38449 5.03294C5.84508 5.03294 6.44908 5.17541 7.19967 5.45541C7.94814 5.73635 8.42873 5.87882 8.63943 5.87882C8.79696 5.87882 9.33084 5.71224 10.2359 5.38012C11.0918 5.07212 11.8141 4.94459 12.4059 4.99482C14.0094 5.12424 15.2141 5.75635 16.0153 6.89518C14.5812 7.76412 13.8718 8.98118 13.8859 10.5425C13.8988 11.7586 14.34 12.7706 15.2071 13.5741C15.6 13.9471 16.0388 14.2353 16.5271 14.44C16.4212 14.7471 16.3094 15.0412 16.1906 15.3235ZM12.513 0.851765C12.513 1.80495 12.1647 2.69494 11.4706 3.51871C10.633 4.498 9.61978 5.06388 8.52108 4.97459C8.50708 4.86024 8.49896 4.73988 8.49896 4.61341C8.49896 3.69835 8.89731 2.71906 9.60473 1.91835C9.9579 1.51294 10.4071 1.17585 10.9518 0.906941C11.4953 0.642047 12.0094 0.495553 12.493 0.47047C12.5071 0.597894 12.513 0.725341 12.513 0.851765Z" fill="black"/>
</svg>
