<svg width="20" height="20" viewBox="0 0 20 20" fill="none" xmlns="http://www.w3.org/2000/svg">
<g clip-path="url(#clip0_53_7638)">
<path d="M19.7691 10.1871C19.7691 9.36771 19.7026 8.76977 19.5586 8.1497H10.1948V11.848H15.6911C15.5804 12.7671 14.982 14.1512 13.6522 15.0813L13.6335 15.2051L16.5942 17.4969L16.7993 17.5174C18.6831 15.7789 19.7691 13.2211 19.7691 10.1871Z" fill="#4285F4"/>
<path d="M10.1948 19.9313C12.8876 19.9313 15.1481 19.0454 16.7993 17.5174L13.6522 15.0813C12.81 15.6682 11.6797 16.0779 10.1948 16.0779C7.55748 16.0779 5.31907 14.3395 4.52114 11.9366L4.40418 11.9466L1.32566 14.3272L1.2854 14.4391C2.92542 17.6945 6.29416 19.9313 10.1948 19.9313Z" fill="#34A853"/>
<path d="M4.52114 11.9366C4.3106 11.3166 4.18875 10.6521 4.18875 9.96565C4.18875 9.27908 4.3106 8.61473 4.51006 7.99466L4.50448 7.8626L1.38739 5.44366L1.2854 5.49214C0.60947 6.84305 0.221619 8.36008 0.221619 9.96565C0.221619 11.5712 0.60947 13.0882 1.2854 14.4391L4.52114 11.9366Z" fill="#FBBC05"/>
<path d="M10.1948 3.85336C12.0675 3.85336 13.3308 4.66168 14.0511 5.33718L16.8658 2.59107C15.1371 0.985496 12.8876 0 10.1948 0C6.29416 0 2.92542 2.23672 1.2854 5.49214L4.51006 7.99466C5.31907 5.59183 7.55748 3.85336 10.1948 3.85336Z" fill="#EB4335"/>
</g>
<defs>
<clipPath id="clip0_53_7638">
<rect width="19.5588" height="20" fill="white" transform="translate(0.220581)"/>
</clipPath>
</defs>
</svg>
